<?xml version="1.0" encoding="utf-8"?>
<!-- Generator: Adobe Illustrator 25.0.0, SVG Export Plug-In . SVG Version: 6.00 Build 0)  -->
<svg version="1.1" id="Layer_1" xmlns="http://www.w3.org/2000/svg" xmlns:xlink="http://www.w3.org/1999/xlink" x="0px" y="0px"
	 viewBox="0 0 454.94 204.88" style="enable-background:new 0 0 454.94 204.88;" xml:space="preserve">
<style type="text/css">
	.st0{fill:#5C5C5C;}
	.st1{fill:#F6989A;}
	.st2{fill:#F26767;}
	.st3{fill:#FBCCCD;}
</style>
<g>
	<path d="M18.52,160.73l1.69-0.25c2.14-0.33,2.63-1,2.63-2.66v-30.41c0-1.93-0.33-2.49-2.58-2.82l-1.74-0.25v-2.98h17.73v2.98
		l-1.75,0.25c-2.02,0.29-2.6,0.86-2.6,2.66v11.85h16.05V127.3c0-1.86-0.48-2.42-2.58-2.71l-1.8-0.25v-2.98h17.7v2.98l-1.71,0.25
		c-1.97,0.29-2.57,0.81-2.57,2.71v30.52c0,1.75,0.6,2.37,2.57,2.66l1.71,0.25v2.98h-17.7v-2.98l1.8-0.25c2.15-0.29,2.58-1,2.58-2.71
		v-14.19H31.89v14.23c0,1.8,0.58,2.39,2.55,2.66l1.8,0.25v2.98H18.52V160.73z"/>
	<path d="M93.42,144.45c0,0.88,0.08,1.94-0.06,2.74l-19.4,2.43c0.28,6.87,4.67,9.76,10.29,9.76c3.71,0,7.11-1.3,8.99-1.93v3.73
		c-2.71,1.69-7.5,3.35-12.17,3.35c-11.84,0-15.91-7.83-15.91-15.97c0-11.4,6.61-17.19,16.13-17.19
		C89.77,131.36,93.42,136.6,93.42,144.45L93.42,144.45z M85.84,142.69c0-4.56-1.39-7.06-5.09-7.06c-4.15,0-6.51,4.82-6.78,10.65
		l10.23-1.91C85.43,144.15,85.84,143.88,85.84,142.69z"/>
	<path d="M127.62,159.9v3.16c-1.57,0.75-3.76,1.38-6.31,1.38c-3.24,0-5.53-1.5-5.97-4.87c-1.46,3.15-4.67,4.93-8.58,4.93
		c-6.92,0-9.65-4.43-9.65-8.85c0-4.09,2.29-6.51,5.68-7.72c2.58-0.97,5.5-1.22,8.14-1.22c1.13,0,2.71,0.05,3.9,0.19v-3.01
		c0-2.43-0.23-4.1-1.13-5.18c-0.97-1.19-2.77-1.64-5.45-1.64c-1.52,0-3.02,0.12-4.49,0.38v5.24h-3.97v-4.18v-4.4
		c3.34-1.91,7.94-2.76,11.57-2.76c5.95,0,8.94,1.53,10.8,5c0.81,1.57,1,4.12,1,7.36v11.48c0,2.82,0.34,3.76,1.13,4.32
		c0.5,0.33,1.66,0.39,2.94,0.39L127.62,159.9z M114.84,150.52c-0.58-0.06-1.36-0.14-1.96-0.14c-2.27,0-4.12,0.31-5.43,0.91
		c-1.69,0.75-2.32,2.13-2.32,3.96c0,2.79,1.58,4.57,4.76,4.57c1.55,0,3.93-0.63,4.95-2.04V150.52z"/>
	<path d="M129.83,160.8l1.39-0.25c2.29-0.43,2.52-0.96,2.52-2.51v-30.88c0-2.24-0.66-3.04-3.98-3.29v-3.08l12.39-2.87
		c-0.06,4.65-0.12,12.32-0.12,16.46v23.66c0,1.69,0.37,2.15,2.38,2.51l1.46,0.25v2.91h-16.04V160.8z"/>
	<path d="M161.24,164.52c-3.43,0-5.57-0.86-6.58-2c-1.61-1.71-2.07-3.51-2.07-7.61v-17.13h-3.65v-3.62l1.99-0.61
		c1.24-0.34,2.13-0.72,2.71-1.33c0.64-0.63,1.16-1.55,1.8-4.56l0.42-2.08h5.01v7.64h5.89v4.56h-5.89v16.19
		c0,2.4,0.14,4.38,0.94,5.21c0.56,0.61,1.6,1,2.91,1c0.83,0,2.3-0.17,3.18-0.47v3.43C165.91,163.99,163.86,164.52,161.24,164.52z"/>
	<path d="M169.97,160.8l1.41-0.25c2.28-0.43,2.52-1,2.52-2.51v-31.3c0-2.27-0.61-3.08-3.98-3.34v-2.62l12.39-2.87
		c-0.12,4.15-0.12,8.91-0.12,13.11v3.99c3.31-2.5,6.53-3.66,10.85-3.66c5.4,0,7.28,2.19,8.02,5.68c0.36,1.63,0.36,3.63,0.36,7.02
		v14.14c0,1.44,0.32,2.03,2.3,2.35l1.61,0.25v2.91h-15.78v-2.91l1.52-0.25c1.65-0.28,2.02-0.8,2.02-2.35v-15.05
		c0-2.52-0.27-4.06-0.91-4.85c-0.74-1.03-2.19-1.41-3.82-1.41c-1.91,0-4.53,0.88-6.17,2.07v19.2c0,1.44,0.33,2.07,2.15,2.44
		l1.44,0.2v2.91h-15.8V160.8z"/>
	<path d="M239.55,132.28v2.98l-1.22,0.2c-1.14,0.19-1.8,1.08-2.36,2.55l-9.04,23.74c-1.83,4.84-3.08,7.66-4.84,10.46
		c-1.79,2.77-4.84,5.86-11.29,5.86c-0.99,0-2.77-0.06-2.77-0.23v-5.93c3.86,0.41,7.03,0.61,8.88-1.33c0.98-1,1.81-2.42,2.55-4.04
		l-11.16-28.87c-0.59-1.52-0.98-1.96-2.22-2.18l-1.22-0.22v-2.98h16.47v2.98l-1.88,0.19c-1.71,0.17-2.24,0.86-2.24,1.57
		c0,0.42,0.02,1.03,0.33,1.88c4.2,11.6,5.28,17.56,5.91,19.6c0.72-2.29,2.42-8.35,6.54-19.46c0.36-0.97,0.41-1.47,0.41-2
		c0-0.8-0.55-1.41-2.27-1.58l-1.91-0.19v-2.98H239.55z"/>
	<path class="st0" d="M241.15,160.73l1.69-0.25c2.1-0.32,2.63-0.85,2.63-2.71v-29.89c0-1.88-0.44-2.6-2.63-2.87l-1.69-0.2v-3.44
		h17.6c3.79,0,7.66,0.42,10.18,1.11c5.36,1.52,8.71,5.64,8.71,11.17c0,5.56-3.59,10.15-9.08,11.89c-3.19,1.05-6.91,1.35-10.62,1.35
		h-3.41v10.85c0,1.69,0.43,2.47,2.51,2.76l2.02,0.25v2.98h-17.9V160.73z M263.41,141.74c2.57-1.05,4.89-3.82,4.89-7.99
		c0-5.5-4.07-8.02-10.05-8.02h-3.73v16.9h2.96C259.58,142.63,262.04,142.29,263.41,141.74z"/>
	<path class="st0" d="M309.34,159.9v3.16c-1.57,0.75-3.76,1.38-6.31,1.38c-3.24,0-5.53-1.5-5.97-4.87
		c-1.46,3.15-4.67,4.93-8.58,4.93c-6.92,0-9.65-4.43-9.65-8.85c0-4.09,2.29-6.51,5.68-7.72c2.58-0.97,5.5-1.22,8.14-1.22
		c1.13,0,2.71,0.05,3.9,0.19v-3.01c0-2.43-0.24-4.1-1.13-5.18c-0.97-1.19-2.77-1.64-5.45-1.64c-1.52,0-3.02,0.12-4.49,0.38v5.24
		h-3.97v-4.18v-4.4c3.34-1.91,7.94-2.76,11.57-2.76c5.95,0,8.94,1.53,10.81,5c0.81,1.57,1,4.12,1,7.36v11.48
		c0,2.82,0.34,3.76,1.13,4.32c0.5,0.33,1.66,0.39,2.94,0.39L309.34,159.9z M296.57,150.52c-0.58-0.06-1.36-0.14-1.96-0.14
		c-2.27,0-4.12,0.31-5.43,0.91c-1.69,0.75-2.32,2.13-2.32,3.96c0,2.79,1.58,4.57,4.76,4.57c1.55,0,3.93-0.63,4.95-2.04V150.52z"/>
	<path class="st0" d="M323.8,164.52c-3.43,0-5.57-0.86-6.58-2c-1.61-1.71-2.07-3.51-2.07-7.61v-17.13h-3.65v-3.62l1.99-0.61
		c1.24-0.34,2.13-0.72,2.71-1.33c0.64-0.63,1.16-1.55,1.8-4.56l0.42-2.08h5.01v7.64h5.89v4.56h-5.89v16.19
		c0,2.4,0.14,4.38,0.94,5.21c0.56,0.61,1.6,1,2.91,1c0.83,0,2.3-0.17,3.18-0.47v3.43C328.47,163.99,326.42,164.52,323.8,164.52z"/>
	<path class="st0" d="M333.17,160.8l1.46-0.25c2.28-0.41,2.46-1,2.46-2.51v-17.38c0-2.18-0.34-2.99-3.66-3.24v-3.15l11.21-2.91h0.75
		v26.68c0,1.69,0.45,2.11,2.46,2.51l1.36,0.25v2.91h-16.04V160.8z M340.62,127.82c-2.29,0-4.45-1.71-4.45-4.59
		c0-2.98,2.16-4.68,4.54-4.68c2.43,0,4.6,1.58,4.6,4.73C345.32,126.05,343.39,127.82,340.62,127.82z"/>
	<path class="st0" d="M378,147.19l-19.4,2.43c0.28,6.87,4.67,9.76,10.29,9.76c3.71,0,7.11-1.3,8.99-1.93v3.73
		c-2.71,1.69-7.5,3.35-12.17,3.35c-11.84,0-15.91-7.83-15.91-15.97c0-11.4,6.61-17.19,16.13-17.19c8.49,0,12.14,5.25,12.14,13.09
		C378.06,145.32,378.14,146.39,378,147.19z M370.49,142.69c0-4.56-1.39-7.06-5.09-7.06c-4.15,0-6.51,4.82-6.78,10.65l10.23-1.91
		C370.08,144.15,370.49,143.88,370.49,142.69z"/>
	<path class="st0" d="M381.9,160.8l1.46-0.25c2.23-0.41,2.46-1,2.46-2.51v-17.43c0-2.18-0.5-3.04-3.66-3.29v-3.05l12.01-2.91v5.1
		c2.1-2.58,6.47-5.1,10.79-5.1c5.29,0,7.34,2.19,8.08,5.68c0.31,1.63,0.31,3.63,0.31,7.02v14.14c0,1.49,0.3,2.02,2.3,2.35l1.61,0.25
		v2.91h-15.74v-2.91l1.38-0.25c1.72-0.42,2.1-0.8,2.1-2.35v-15.05c0-2.52-0.19-4.02-0.85-4.87c-1.63-2.38-7.08-0.75-9.99,2.4v17.48
		c0,1.53,0.27,2.02,2.15,2.44l1.39,0.2v2.91h-15.8V160.8z"/>
	<path class="st0" d="M432.24,164.52c-3.43,0-5.57-0.86-6.58-2c-1.61-1.71-2.07-3.51-2.07-7.61v-17.13h-3.65v-3.62l1.99-0.61
		c1.24-0.34,2.13-0.72,2.71-1.33c0.64-0.63,1.16-1.55,1.8-4.56l0.42-2.08h5.01v7.64h5.89v4.56h-5.89v16.19
		c0,2.4,0.14,4.38,0.94,5.21c0.56,0.61,1.6,1,2.91,1c0.83,0,2.3-0.17,3.18-0.47v3.43C436.9,163.99,434.85,164.52,432.24,164.52z"/>
</g>
<path d="M425.82,82.1"/>
<g>
	<g>
		<path class="st1" d="M135.04,19.87c15.86-0.08,31.72,0.02,47.57-0.05c0.08,15.92-0.16,31.84,0.15,47.76
			c-15.02,0.08-29.84-7.37-38.6-19.58C138.12,39.97,134.94,29.9,135.04,19.87z"/>
		<path class="st1" d="M277.46,19.8c16.05,0.08,32.09,0.02,48.14,0.03c0.41,14.58-6.91,28.95-18.44,37.76
			c-8.17,6.61-18.71,9.79-29.13,9.99h-0.8C277.75,51.67,277.31,35.73,277.46,19.8z"/>
	</g>
	<g>
		<path class="st2" d="M182.61,19.82c8.64,0.38,17.35,2.39,24.7,7.09c13,7.95,22.44,22.4,22.53,37.87
			c1.51-8.35,3.92-16.81,8.72-23.91c5.61-7.73,13.13-14.32,22.19-17.64c5.24-2.43,11.05-2.79,16.71-3.43
			c-0.15,15.93,0.29,31.87-0.23,47.78c-31.49,0-62.98,0-94.47,0C182.45,51.66,182.69,35.74,182.61,19.82z"/>
	</g>
	<g>
		<path class="st3" d="M182.76,67.58c31.49,0,62.98,0,94.47,0h0.8c-15.83,15.89-31.65,31.8-47.62,47.55
			c-3.62-3.14-6.83-6.71-10.26-10.04C207.72,92.55,195,80.3,182.76,67.58z"/>
	</g>
</g>
</svg>
